{"accessors":[{"bufferView":0,"componentType":5125,"count":1692,"name":"index","type":"SCALAR"},{"bufferView":1,"componentType":5126,"count":299,"max":[2.492000102996826,1.2649999856948853,5.682000160217285],"min":[-4.640999794006348,-1.6200000047683716,-1.8289999961853027],"name":"position","type":"VEC3"}],"asset":{"version":"2.0"},"bufferViews":[{"buffer":0,"byteLength":6768,"name":"indices"},{"buffer":0,"byteLength":5980,"byteOffset":6768,"byteStride":20,"name":"vertices"}],"buffers":[{"byteLength":12748,"name":"geometry","uri":"data:application/octet-stream;base64,"}],"meshes":[{"primitives":[{"attributes":{"POSITION":1},"indices":0,"mode":4}]}],"nodes":[{"mesh":0}],"scene":0,"scenes":[{"nodes":[0]}]}
